<svg width="40" height="42" viewBox="0 0 40 42" fill="none" xmlns="http://www.w3.org/2000/svg">
<g id="map-pin">
<path id="Vector" d="M35 17.5C35 29.75 20 40.25 20 40.25C20 40.25 5 29.75 5 17.5C5 13.3228 6.58035 9.31677 9.3934 6.36307C12.2064 3.40937 16.0218 1.75 20 1.75C23.9782 1.75 27.7936 3.40937 30.6066 6.36307C33.4196 9.31677 35 13.3228 35 17.5Z" stroke="black" stroke-width="3" stroke-linecap="round" stroke-linejoin="round"/>
<path id="Vector_2" d="M20 22.75C22.7614 22.75 25 20.3995 25 17.5C25 14.6005 22.7614 12.25 20 12.25C17.2386 12.25 15 14.6005 15 17.5C15 20.3995 17.2386 22.75 20 22.75Z" stroke="black" stroke-width="3" stroke-linecap="round" stroke-linejoin="round"/>
</g>
</svg>
